<svg
  viewBox="0 0 20 20"
  fill="none"
  class="icon icon-cart"
  xmlns="http://www.w3.org/2000/svg"
>
  <path d="M6.875 18.125C7.56536 18.125 8.125 17.5654 8.125 16.875C8.125 16.1846 7.56536 15.625 6.875 15.625C6.18464 15.625 5.625 16.1846 5.625 16.875C5.625 17.5654 6.18464 18.125 6.875 18.125Z" fill="currentColor"/>
  <path d="M15 18.125C15.6904 18.125 16.25 17.5654 16.25 16.875C16.25 16.1846 15.6904 15.625 15 15.625C14.3096 15.625 13.75 16.1846 13.75 16.875C13.75 17.5654 14.3096 18.125 15 18.125Z" fill="currentColor"/>
  <path d="M1.25 2.5H3.125L5.99609 12.8344C6.06916 13.0976 6.22643 13.3296 6.44384 13.4949C6.66126 13.6603 6.92685 13.7499 7.2 13.75H14.9219C15.1952 13.7501 15.4609 13.6605 15.6785 13.4952C15.8961 13.3298 16.0535 13.0977 16.1266 12.8344L18.125 5.625H3.99297" stroke="currentColor" stroke-width="1.5" stroke-linecap="round" stroke-linejoin="round"/>
</svg>
