<svg class="icon icon-headphone" width="32" height="33" viewBox="0 0 32 33" fill="none" xmlns="http://www.w3.org/2000/svg">
<path d="M28 16.1992H24C23.4696 16.1992 22.9609 16.4099 22.5858 16.785C22.2107 17.1601 22 17.6688 22 18.1992V23.1992C22 23.7297 22.2107 24.2384 22.5858 24.6134C22.9609 24.9885 23.4696 25.1992 24 25.1992H26C26.5304 25.1992 27.0391 24.9885 27.4142 24.6134C27.7893 24.2384 28 23.7297 28 23.1992V16.1992ZM28 16.1992C28 14.6234 27.6896 13.0629 27.0866 11.607C26.4835 10.1511 25.5996 8.82824 24.4853 7.71394C23.371 6.59963 22.0481 5.71572 20.5922 5.11266C19.1363 4.50961 17.5759 4.19922 16 4.19922C14.4241 4.19922 12.8637 4.50961 11.4078 5.11266C9.95189 5.71572 8.62902 6.59963 7.51472 7.71394C6.40042 8.82824 5.5165 10.1511 4.91345 11.607C4.31039 13.0629 4 14.6234 4 16.1992M4 16.1992V23.1992C4 23.7297 4.21071 24.2384 4.58579 24.6134C4.96086 24.9885 5.46957 25.1992 6 25.1992H8C8.53043 25.1992 9.03914 24.9885 9.41421 24.6134C9.78929 24.2384 10 23.7297 10 23.1992V18.1992C10 17.6688 9.78929 17.1601 9.41421 16.785C9.03914 16.4099 8.53043 16.1992 8 16.1992H4Z" stroke="currentColor" stroke-width="2" stroke-linecap="round" stroke-linejoin="round"/>
</svg>
