<svg class="icon icon-speaker-hifi" width="32" height="33" viewBox="0 0 32 33" fill="none" xmlns="http://www.w3.org/2000/svg">
<path d="M25 27.1992V5.19922C25 4.64693 24.5523 4.19922 24 4.19922L8 4.19922C7.44772 4.19922 7 4.64693 7 5.19922V27.1992C7 27.7515 7.44772 28.1992 8 28.1992H24C24.5523 28.1992 25 27.7515 25 27.1992Z" stroke="currentColor" stroke-width="2" stroke-linecap="round" stroke-linejoin="round"/>
<path d="M16 11.1992C16.8284 11.1992 17.5 10.5276 17.5 9.69922C17.5 8.87079 16.8284 8.19922 16 8.19922C15.1716 8.19922 14.5 8.87079 14.5 9.69922C14.5 10.5276 15.1716 11.1992 16 11.1992Z" fill="currentColor"/>
<path d="M16 23.1992C18.2091 23.1992 20 21.4084 20 19.1992C20 16.9901 18.2091 15.1992 16 15.1992C13.7909 15.1992 12 16.9901 12 19.1992C12 21.4084 13.7909 23.1992 16 23.1992Z" stroke="currentColor" stroke-width="2" stroke-linecap="round" stroke-linejoin="round"/>
</svg>